# This file is brought to you by Roblox Corporation
# Generated by Roblox Studio

mtllib SmallCrystal.mtl

g Invisipart1

v 221.096 2.56776 -154.895 
v 219.62 0.00999939 -154.895 
v 219.62 2.56776 -154.895 
v 221.096 0.00999939 -154.895 
v 221.096 2.56776 -154.895 
v 219.62 2.56776 -154.895 
v 221.096 3.8031 -153.694 
v 219.62 3.8031 -153.694 
v 221.096 2.56776 -154.895 
v 221.096 0.00999939 -153.694 
v 221.096 0.00999939 -154.895 
v 221.096 3.8031 -153.694 
v 219.62 3.8031 -153.694 
v 221.096 0.00999939 -153.694 
v 221.096 3.8031 -153.694 
v 219.62 0.00999939 -153.694 
v 219.62 0.00999939 -153.694 
v 219.62 0.00999939 -154.895 
v 221.096 0.00999939 -154.895 
v 221.096 0.00999939 -153.694 
v 219.62 2.56776 -154.895 
v 219.62 0.00999939 -153.694 
v 219.62 3.8031 -153.694 
v 219.62 0.00999939 -154.895 

vn 0 0 -1 
vn 0 0 -1 
vn 0 0 -1 
vn 0 0 -1 
vn 0 0.700787 -0.716535 
vn 0 0.700787 -0.716535 
vn 0 0.700787 -0.716535 
vn 0 0.700787 -0.716535 
vn 1 0 0 
vn 1 0 0 
vn 1 0 0 
vn 1 0 0 
vn 0 0 1 
vn 0 0 1 
vn 0 0 1 
vn 0 0 1 
vn 0 -1 0 
vn 0 -1 0 
vn 0 -1 0 
vn 0 -1 0 
vn -1 0 0 
vn -1 0 0 
vn -1 0 0 
vn -1 0 0 

vt -1.96106 -0.952586 
vt -1.59211 -1.59203 
vt -1.59211 -0.952586 
vt -1.96106 -1.59203 
vt -1.92676 -0.933412 
vt -1.92676 -1.30237 
vt -1.62641 -0.933412 
vt -1.62641 -1.30237 
vt -1.62641 -0.952586 
vt -1.92676 -1.59203 
vt -1.62641 -1.59203 
vt -1.92676 -0.643752 
vt -1.96106 -0.643752 
vt -1.59211 -1.59203 
vt -1.59211 -0.643752 
vt -1.96106 -1.59203 
vt -1.92676 -1.30237 
vt -1.62641 -1.30237 
vt -1.62641 -0.933413 
vt -1.92676 -0.933413 
vt -1.92676 -0.952586 
vt -1.62641 -1.59203 
vt -1.62641 -0.643752 
vt -1.92676 -1.59203 

usemtl Invisipart1Mtl

f 1/1/1 2/2/2 3/3/3 
f 2/2/2 1/1/1 4/4/4 
f 5/5/5 6/6/6 7/7/7 
f 7/7/7 6/6/6 8/8/8 
f 9/9/9 10/10/10 11/11/11 
f 10/10/10 9/9/9 12/12/12 
f 13/13/13 14/14/14 15/15/15 
f 14/14/14 13/13/13 16/16/16 
f 17/17/17 18/18/18 19/19/19 
f 17/17/17 19/19/19 20/20/20 
f 21/21/21 22/22/22 23/23/23 
f 22/22/22 21/21/21 24/24/24 

g Invisipart2

v 221.089 2.60846 -154.88 
v 219.646 0.068621 -154.88 
v 219.646 2.60846 -154.88 
v 221.089 0.068621 -154.88 
v 221.089 2.60846 -154.88 
v 219.646 2.60846 -154.88 
v 221.089 3.83514 -153.706 
v 219.646 3.83514 -153.706 
v 221.089 2.60846 -154.88 
v 221.089 0.068621 -153.706 
v 221.089 0.068621 -154.88 
v 221.089 3.83514 -153.706 
v 219.646 3.83514 -153.706 
v 221.089 0.068621 -153.706 
v 221.089 3.83514 -153.706 
v 219.646 0.068621 -153.706 
v 219.646 0.068621 -153.706 
v 219.646 0.068621 -154.88 
v 221.089 0.068621 -154.88 
v 221.089 0.068621 -153.706 
v 219.646 2.60846 -154.88 
v 219.646 0.068621 -153.706 
v 219.646 3.83514 -153.706 
v 219.646 0.068621 -154.88 

vn 0 0 -1 
vn 0 0 -1 
vn 0 0 -1 
vn 0 0 -1 
vn 0 0.692913 -0.724409 
vn 0 0.692913 -0.724409 
vn 0 0.692913 -0.724409 
vn 0 0.692913 -0.724409 
vn 1 0 0 
vn 1 0 0 
vn 1 0 0 
vn 1 0 0 
vn 0 0 1 
vn 0 0 1 
vn 0 0 1 
vn 0 0 1 
vn 0 -1 0 
vn 0 -1 0 
vn 0 -1 0 
vn 0 -1 0 
vn -1 0 0 
vn -1 0 0 
vn -1 0 0 
vn -1 0 0 

vt 0.776085 1.75318 
vt 2.21875 -0.786658 
vt 2.21875 1.75318 
vt 0.776086 -0.786658 
vt 0.910204 1.81794 
vt 0.910204 0.375271 
vt 2.08463 1.81794 
vt 2.08463 0.375271 
vt 2.08463 1.75318 
vt 0.910204 -0.786658 
vt 2.08463 -0.786658 
vt 0.910204 2.97986 
vt 0.776085 2.97987 
vt 2.21875 -0.786658 
vt 2.21875 2.97986 
vt 0.776085 -0.786658 
vt 0.910204 0.37527 
vt 2.08463 0.37527 
vt 2.08463 1.81794 
vt 0.910204 1.81794 
vt 0.910204 1.75318 
vt 2.08463 -0.786658 
vt 2.08463 2.97987 
vt 0.910204 -0.786658 

usemtl Invisipart2Mtl

f 25/25/25 26/26/26 27/27/27 
f 26/26/26 25/25/25 28/28/28 
f 29/29/29 30/30/30 31/31/31 
f 31/31/31 30/30/30 32/32/32 
f 33/33/33 34/34/34 35/35/35 
f 34/34/34 33/33/33 36/36/36 
f 37/37/37 38/38/38 39/39/39 
f 38/38/38 37/37/37 40/40/40 
f 41/41/41 42/42/42 43/43/43 
f 41/41/41 43/43/43 44/44/44 
f 45/45/45 46/46/46 47/47/47 
f 46/46/46 45/45/45 48/48/48 

g Invisipart3

v 219.331 3.57077 -152.358 
v 221.385 0.00999999 -152.358 
v 221.385 3.57077 -152.358 
v 219.331 0.00999999 -152.358 
v 219.331 3.57077 -152.358 
v 221.385 3.57077 -152.358 
v 219.331 5.29054 -154.031 
v 221.385 5.29054 -154.031 
v 219.331 3.57077 -152.358 
v 219.331 0.00999999 -154.031 
v 219.331 0.00999999 -152.358 
v 219.331 5.29054 -154.031 
v 221.385 5.29054 -154.031 
v 219.331 0.00999999 -154.031 
v 219.331 5.29054 -154.031 
v 221.385 0.00999999 -154.031 
v 221.385 0.00999999 -154.031 
v 221.385 0.00999999 -152.358 
v 219.331 0.00999999 -152.358 
v 219.331 0.00999999 -154.031 
v 221.385 3.57077 -152.358 
v 221.385 0.00999999 -154.031 
v 221.385 5.29054 -154.031 
v 221.385 0.00999999 -152.358 

vn 0 0 1 
vn 0 0 1 
vn 0 0 1 
vn 0 0 1 
vn 0 0.700787 0.716535 
vn 0 0.700787 0.716535 
vn 0 0.700787 0.716535 
vn 0 0.700787 0.716535 
vn -1 0 0 
vn -1 0 0 
vn -1 0 0 
vn -1 0 0 
vn 0 0 -1 
vn 0 0 -1 
vn 0 0 -1 
vn 0 0 -1 
vn 0 -1 0 
vn 0 -1 0 
vn 0 -1 0 
vn 0 -1 0 
vn 1 0 0 
vn 1 0 0 
vn 1 0 0 
vn 1 0 0 

vt -0.39313 -1.90493 
vt 0.120506 -2.79512 
vt 0.120506 -1.90493 
vt -0.39313 -2.79512 
vt -0.34538 -1.87824 
vt -0.34538 -2.39188 
vt 0.0727552 -1.87824 
vt 0.0727552 -2.39188 
vt 0.0727552 -1.90493 
vt -0.34538 -2.79512 
vt 0.0727552 -2.79512 
vt -0.34538 -1.47499 
vt -0.39313 -1.47499 
vt 0.120506 -2.79512 
vt 0.120506 -1.47499 
vt -0.39313 -2.79512 
vt -0.34538 -2.39188 
vt 0.0727552 -2.39188 
vt 0.0727552 -1.87824 
vt -0.34538 -1.87824 
vt -0.34538 -1.90493 
vt 0.0727552 -2.79512 
vt 0.0727552 -1.47499 
vt -0.34538 -2.79512 

usemtl Invisipart1Mtl

f 49/49/49 50/50/50 51/51/51 
f 50/50/50 49/49/49 52/52/52 
f 53/53/53 54/54/54 55/55/55 
f 55/55/55 54/54/54 56/56/56 
f 57/57/57 58/58/58 59/59/59 
f 58/58/58 57/57/57 60/60/60 
f 61/61/61 62/62/62 63/63/63 
f 62/62/62 61/61/61 64/64/64 
f 65/65/65 66/66/66 67/67/67 
f 65/65/65 67/67/67 68/68/68 
f 69/69/69 70/70/70 71/71/71 
f 70/70/70 69/69/69 72/72/72 

g Invisipart4

v 219.34 3.62743 -152.378 
v 221.349 0.0916095 -152.378 
v 221.349 3.62743 -152.378 
v 219.34 0.0916095 -152.378 
v 219.34 3.62743 -152.378 
v 221.349 3.62743 -152.378 
v 219.34 5.33514 -154.013 
v 221.349 5.33514 -154.013 
v 219.34 3.62743 -152.378 
v 219.34 0.0916095 -154.013 
v 219.34 0.0916095 -152.378 
v 219.34 5.33514 -154.013 
v 221.349 5.33514 -154.013 
v 219.34 0.0916095 -154.013 
v 219.34 5.33514 -154.013 
v 221.349 0.0916095 -154.013 
v 221.349 0.0916095 -154.013 
v 221.349 0.0916095 -152.378 
v 219.34 0.0916095 -152.378 
v 219.34 0.0916095 -154.013 
v 221.349 3.62743 -152.378 
v 221.349 0.0916095 -154.013 
v 221.349 5.33514 -154.013 
v 221.349 0.0916095 -152.378 

vn 0 0 1 
vn 0 0 1 
vn 0 0 1 
vn 0 0 1 
vn 0 0.692913 0.724409 
vn 0 0.692913 0.724409 
vn 0 0.692913 0.724409 
vn 0 0.692913 0.724409 
vn -1 0 0 
vn -1 0 0 
vn -1 0 0 
vn -1 0 0 
vn 0 0 -1 
vn 0 0 -1 
vn 0 0 -1 
vn 0 0 -1 
vn 0 -1 0 
vn 0 -1 0 
vn 0 -1 0 
vn 0 -1 0 
vn 1 0 0 
vn 1 0 0 
vn 1 0 0 
vn 1 0 0 

vt 2.08072 -0.797121 
vt 4.08912 -4.33294 
vt 4.08912 -0.797121 
vt 2.08072 -4.33294 
vt 2.26743 -0.706973 
vt 2.26743 -2.71537 
vt 3.9024 -0.706973 
vt 3.9024 -2.71537 
vt 3.9024 -0.797121 
vt 2.26743 -4.33294 
vt 3.9024 -4.33294 
vt 2.26743 0.910595 
vt 2.08072 0.910596 
vt 4.08911 -4.33294 
vt 4.08912 0.910595 
vt 2.08072 -4.33294 
vt 2.26743 -2.71537 
vt 3.9024 -2.71537 
vt 3.9024 -0.706974 
vt 2.26743 -0.706974 
vt 2.26743 -0.797121 
vt 3.9024 -4.33294 
vt 3.9024 0.910596 
vt 2.26743 -4.33294 

usemtl Invisipart2Mtl

f 73/73/73 74/74/74 75/75/75 
f 74/74/74 73/73/73 76/76/76 
f 77/77/77 78/78/78 79/79/79 
f 79/79/79 78/78/78 80/80/80 
f 81/81/81 82/82/82 83/83/83 
f 82/82/82 81/81/81 84/84/84 
f 85/85/85 86/86/86 87/87/87 
f 86/86/86 85/85/85 88/88/88 
f 89/89/89 90/90/90 91/91/91 
f 89/89/89 91/91/91 92/92/92 
f 93/93/93 94/94/94 95/95/95 
f 94/94/94 93/93/93 96/96/96 

g Invisipart5

v 219.89 1.63162 -151.714 
v 220.826 0.00999928 -151.714 
v 220.826 1.63162 -151.714 
v 219.89 0.00999928 -151.714 
v 219.89 1.63162 -151.714 
v 220.826 1.63162 -151.714 
v 219.89 2.41483 -152.475 
v 220.826 2.41483 -152.475 
v 219.89 1.63162 -151.714 
v 219.89 0.00999928 -152.475 
v 219.89 0.00999928 -151.714 
v 219.89 2.41483 -152.475 
v 220.826 2.41483 -152.475 
v 219.89 0.00999928 -152.475 
v 219.89 2.41483 -152.475 
v 220.826 0.00999928 -152.475 
v 220.826 0.00999928 -152.475 
v 220.826 0.00999928 -151.714 
v 219.89 0.00999928 -151.714 
v 219.89 0.00999928 -152.475 
v 220.826 1.63162 -151.714 
v 220.826 0.00999928 -152.475 
v 220.826 2.41483 -152.475 
v 220.826 0.00999928 -151.714 

vn 0 0 1 
vn 0 0 1 
vn 0 0 1 
vn 0 0 1 
vn 0 0.700787 0.716535 
vn 0 0.700787 0.716535 
vn 0 0.700787 0.716535 
vn 0 0.700787 0.716535 
vn -1 0 0 
vn -1 0 0 
vn -1 0 0 
vn -1 0 0 
vn 0 0 -1 
vn 0 0 -1 
vn 0 0 -1 
vn 0 0 -1 
vn 0 -1 0 
vn 0 -1 0 
vn 0 -1 0 
vn 0 -1 0 
vn 1 0 0 
vn 1 0 0 
vn 1 0 0 
vn 1 0 0 

vt -1.03717 -0.732347 
vt -0.803255 -1.13775 
vt -0.803255 -0.732347 
vt -1.03717 -1.13775 
vt -1.01543 -0.72019 
vt -1.01543 -0.954108 
vt -0.825001 -0.72019 
vt -0.825001 -0.954107 
vt -0.825001 -0.732347 
vt -1.01543 -1.13775 
vt -0.825001 -1.13775 
vt -1.01543 -0.536545 
vt -1.03717 -0.536545 
vt -0.803255 -1.13775 
vt -0.803255 -0.536545 
vt -1.03717 -1.13775 
vt -1.01543 -0.954108 
vt -0.825001 -0.954108 
vt -0.825001 -0.72019 
vt -1.01543 -0.72019 
vt -1.01543 -0.732347 
vt -0.825001 -1.13775 
vt -0.825001 -0.536545 
vt -1.01543 -1.13775 

usemtl Invisipart1Mtl

f 97/97/97 98/98/98 99/99/99 
f 98/98/98 97/97/97 100/100/100 
f 101/101/101 102/102/102 103/103/103 
f 103/103/103 102/102/102 104/104/104 
f 105/105/105 106/106/106 107/107/107 
f 106/106/106 105/105/105 108/108/108 
f 109/109/109 110/110/110 111/111/111 
f 110/110/110 109/109/109 112/112/112 
f 113/113/113 114/114/114 115/115/115 
f 113/113/113 115/115/115 116/116/116 
f 117/117/117 118/118/118 119/119/119 
f 118/118/118 117/117/117 120/120/120 

g Invisipart6

v 219.894 1.65743 -151.723 
v 220.809 0.0471655 -151.723 
v 220.809 1.65743 -151.723 
v 219.894 0.0471655 -151.723 
v 219.894 1.65743 -151.723 
v 220.809 1.65743 -151.723 
v 219.894 2.43514 -152.467 
v 220.809 2.43515 -152.467 
v 219.894 1.65743 -151.723 
v 219.894 0.0471655 -152.467 
v 219.894 0.0471655 -151.723 
v 219.894 2.43514 -152.467 
v 220.809 2.43515 -152.467 
v 219.894 0.0471655 -152.467 
v 219.894 2.43514 -152.467 
v 220.809 0.0471655 -152.467 
v 220.809 0.0471655 -152.467 
v 220.809 0.0471655 -151.723 
v 219.894 0.0471655 -151.723 
v 219.894 0.0471655 -152.467 
v 220.809 1.65743 -151.723 
v 220.809 0.0471655 -152.467 
v 220.809 2.43515 -152.467 
v 220.809 0.0471655 -151.723 

vn 0 0 1 
vn 0 0 1 
vn 0 0 1 
vn 0 0 1 
vn 0 0.692913 0.724409 
vn 0 0.692913 0.724409 
vn 0 0.692913 0.724409 
vn 0 0.692913 0.724409 
vn -1 0 0 
vn -1 0 0 
vn -1 0 0 
vn -1 0 0 
vn 0 0 -1 
vn 0 0 -1 
vn 0 0 -1 
vn 0 0 -1 
vn 0 -1 0 
vn 0 -1 0 
vn 0 -1 0 
vn 0 -1 0 
vn 1 0 0 
vn 1 0 0 
vn 1 0 0 
vn 1 0 0 

vt 1.51614 -0.557197 
vt 2.43079 -2.16746 
vt 2.43079 -0.557197 
vt 1.51614 -2.16746 
vt 1.60117 -0.516143 
vt 1.60117 -1.43079 
vt 2.34576 -0.516143 
vt 2.34576 -1.43079 
vt 2.34576 -0.557197 
vt 1.60117 -2.16746 
vt 2.34576 -2.16746 
vt 1.60117 0.22052 
vt 1.51614 0.220521 
vt 2.43079 -2.16746 
vt 2.43079 0.22052 
vt 1.51614 -2.16746 
vt 1.60117 -1.43079 
vt 2.34576 -1.43079 
vt 2.34576 -0.516144 
vt 1.60117 -0.516144 
vt 1.60117 -0.557197 
vt 2.34576 -2.16746 
vt 2.34576 0.220521 
vt 1.60117 -2.16746 

usemtl Invisipart2Mtl

f 121/121/121 122/122/122 123/123/123 
f 122/122/122 121/121/121 124/124/124 
f 125/125/125 126/126/126 127/127/127 
f 127/127/127 126/126/126 128/128/128 
f 129/129/129 130/130/130 131/131/131 
f 130/130/130 129/129/129 132/132/132 
f 133/133/133 134/134/134 135/135/135 
f 134/134/134 133/133/133 136/136/136 
f 137/137/137 138/138/138 139/139/139 
f 137/137/137 139/139/139 140/140/140 
f 141/141/141 142/142/142 143/143/143 
f 142/142/142 141/141/141 144/144/144 

