# This file is brought to you by Roblox Corporation
# Generated by Roblox Studio

mtllib LargeCrystal.mtl

g Invisipart1

v 223.583 4.23948 -134.639 
v 223.583 0.00999784 -137.407 
v 223.583 4.23948 -137.407 
v 223.583 0.00999784 -134.639 
v 223.583 4.23948 -134.639 
v 223.583 4.23948 -137.407 
v 221.38 6.28222 -134.639 
v 221.38 6.28223 -137.407 
v 223.583 4.23948 -134.639 
v 221.38 0.00999784 -134.639 
v 223.583 0.00999784 -134.639 
v 221.38 6.28222 -134.639 
v 221.38 6.28223 -137.407 
v 221.38 0.00999784 -134.639 
v 221.38 6.28222 -134.639 
v 221.38 0.00999784 -137.407 
v 221.38 0.00999784 -137.407 
v 223.583 0.00999784 -137.407 
v 223.583 0.00999784 -134.639 
v 221.38 0.00999784 -134.639 
v 223.583 4.23948 -137.407 
v 221.38 0.00999784 -137.407 
v 221.38 6.28223 -137.407 
v 223.583 0.00999784 -137.407 

vn 1 0 0 
vn 1 0 0 
vn 1 0 0 
vn 1 0 0 
vn 0.677165 0.732283 0 
vn 0.677165 0.732283 0 
vn 0.677165 0.732283 0 
vn 0.677165 0.732283 0 
vn 0 0 1 
vn 0 0 1 
vn 0 0 1 
vn 0 0 1 
vn -1 0 0 
vn -1 0 0 
vn -1 0 0 
vn -1 0 0 
vn 0 -1 0 
vn 0 -1 0 
vn 0 -1 0 
vn 0 -1 0 
vn 0 0 -1 
vn 0 0 -1 
vn 0 0 -1 
vn 0 0 -1 

vt 3.55681 -0.180669 
vt 4.24883 -1.23804 
vt 4.24883 -0.180669 
vt 3.55681 -1.23804 
vt 3.62748 -0.108003 
vt 3.62748 -0.80002 
vt 4.17817 -0.108003 
vt 4.17817 -0.80002 
vt 4.17817 -0.180669 
vt 3.62748 -1.23804 
vt 4.17817 -1.23804 
vt 3.62748 0.330017 
vt 3.55681 0.330017 
vt 4.24883 -1.23804 
vt 4.24883 0.330017 
vt 3.55681 -1.23804 
vt 3.62748 -0.800021 
vt 4.17817 -0.800021 
vt 4.17817 -0.108003 
vt 3.62748 -0.108003 
vt 3.62748 -0.180669 
vt 4.17817 -1.23804 
vt 4.17817 0.330017 
vt 3.62748 -1.23804 

usemtl Invisipart1Mtl

f 1/1/1 2/2/2 3/3/3 
f 2/2/2 1/1/1 4/4/4 
f 5/5/5 6/6/6 7/7/7 
f 7/7/7 6/6/6 8/8/8 
f 9/9/9 10/10/10 11/11/11 
f 10/10/10 9/9/9 12/12/12 
f 13/13/13 14/14/14 15/15/15 
f 14/14/14 13/13/13 16/16/16 
f 17/17/17 18/18/18 19/19/19 
f 17/17/17 19/19/19 20/20/20 
f 21/21/21 22/22/22 23/23/23 
f 22/22/22 21/21/21 24/24/24 

g Invisipart2

v 216.913 4.37317 -137.179 
v 216.913 0.00999975 -134.661 
v 216.913 4.37317 -134.661 
v 216.913 0.00999975 -137.179 
v 216.913 4.37317 -137.179 
v 216.913 4.37317 -134.661 
v 218.963 6.48048 -137.179 
v 218.963 6.48048 -134.661 
v 216.913 4.37317 -137.179 
v 218.963 0.00999975 -137.179 
v 216.913 0.00999975 -137.179 
v 218.963 6.48048 -137.179 
v 218.963 6.48048 -134.661 
v 218.963 0.00999975 -137.179 
v 218.963 6.48048 -137.179 
v 218.963 0.00999975 -134.661 
v 218.963 0.00999975 -134.661 
v 216.913 0.00999975 -134.661 
v 216.913 0.00999975 -137.179 
v 218.963 0.00999975 -137.179 
v 216.913 4.37317 -134.661 
v 218.963 0.00999975 -134.661 
v 218.963 6.48048 -134.661 
v 216.913 0.00999975 -134.661 

vn -1 0 0 
vn -1 0 0 
vn -1 0 0 
vn -1 0 0 
vn -0.716535 0.700787 0 
vn -0.716535 0.700787 0 
vn -0.716535 0.700787 0 
vn -0.716535 0.700787 0 
vn 0 0 -1 
vn 0 0 -1 
vn 0 0 -1 
vn 0 0 -1 
vn 1 0 0 
vn 1 0 0 
vn 1 0 0 
vn 1 0 0 
vn 0 -1 0 
vn 0 -1 0 
vn 0 -1 0 
vn 0 -1 0 
vn 0 0 1 
vn 0 0 1 
vn 0 0 1 
vn 0 0 1 

vt 1.67502 -3.80767 
vt 2.3044 -4.89847 
vt 2.3044 -3.80767 
vt 1.67502 -4.89847 
vt 1.73353 -3.77497 
vt 1.73353 -4.40435 
vt 2.24589 -3.77497 
vt 2.24589 -4.40435 
vt 2.24589 -3.80767 
vt 1.73353 -4.89847 
vt 2.24589 -4.89847 
vt 1.73353 -3.28085 
vt 1.67502 -3.28085 
vt 2.3044 -4.89847 
vt 2.3044 -3.28085 
vt 1.67502 -4.89847 
vt 1.73353 -4.40435 
vt 2.24589 -4.40435 
vt 2.24589 -3.77497 
vt 1.73353 -3.77497 
vt 1.73353 -3.80767 
vt 2.24589 -4.89847 
vt 2.24589 -3.28085 
vt 1.73353 -4.89847 

usemtl Invisipart1Mtl

f 25/25/25 26/26/26 27/27/27 
f 26/26/26 25/25/25 28/28/28 
f 29/29/29 30/30/30 31/31/31 
f 31/31/31 30/30/30 32/32/32 
f 33/33/33 34/34/34 35/35/35 
f 34/34/34 33/33/33 36/36/36 
f 37/37/37 38/38/38 39/39/39 
f 38/38/38 37/37/37 40/40/40 
f 41/41/41 42/42/42 43/43/43 
f 41/41/41 43/43/43 44/44/44 
f 45/45/45 46/46/46 47/47/47 
f 46/46/46 45/45/45 48/48/48 

g Invisipart3

v 220.103 4.98006 -138.752 
v 218.666 0.00999999 -138.752 
v 218.666 4.98006 -138.752 
v 220.103 0.00999999 -138.752 
v 220.103 4.98006 -138.752 
v 218.666 4.98006 -138.752 
v 220.103 7.38048 -136.396 
v 218.666 7.38048 -136.396 
v 220.103 4.98006 -138.752 
v 220.103 0.00999999 -136.396 
v 220.103 0.00999999 -138.752 
v 220.103 7.38048 -136.396 
v 218.666 7.38048 -136.396 
v 220.103 0.00999999 -136.396 
v 220.103 7.38048 -136.396 
v 218.666 0.00999999 -136.396 
v 218.666 0.00999999 -136.396 
v 218.666 0.00999999 -138.752 
v 220.103 0.00999999 -138.752 
v 220.103 0.00999999 -136.396 
v 218.666 4.98006 -138.752 
v 218.666 0.00999999 -136.396 
v 218.666 7.38048 -136.396 
v 218.666 0.00999999 -138.752 

vn 0 0 -1 
vn 0 0 -1 
vn 0 0 -1 
vn 0 0 -1 
vn 0 0.700787 -0.716535 
vn 0 0.700787 -0.716535 
vn 0 0.700787 -0.716535 
vn 0 0.700787 -0.716535 
vn 1 0 0 
vn 1 0 0 
vn 1 0 0 
vn 1 0 0 
vn 0 0 1 
vn 0 0 1 
vn 0 0 1 
vn 0 0 1 
vn 0 -1 0 
vn 0 -1 0 
vn 0 -1 0 
vn 0 -1 0 
vn -1 0 0 
vn -1 0 0 
vn -1 0 0 
vn -1 0 0 

vt -1.02888 -3.32218 
vt -0.669625 -4.5647 
vt -0.669625 -3.32218 
vt -1.02888 -4.5647 
vt -1.14379 -3.46376 
vt -1.14379 -3.82302 
vt -0.554716 -3.46376 
vt -0.554716 -3.82302 
vt -0.554716 -3.32218 
vt -1.14379 -4.5647 
vt -0.554716 -4.5647 
vt -1.14379 -2.72208 
vt -1.02888 -2.72208 
vt -0.669625 -4.5647 
vt -0.669625 -2.72208 
vt -1.02888 -4.5647 
vt -1.14379 -3.82302 
vt -0.554716 -3.82302 
vt -0.554716 -3.46376 
vt -1.14379 -3.46376 
vt -1.14379 -3.32218 
vt -0.554716 -4.5647 
vt -0.554716 -2.72208 
vt -1.14379 -4.5647 

usemtl Invisipart1Mtl

f 49/49/49 50/50/50 51/51/51 
f 50/50/50 49/49/49 52/52/52 
f 53/53/53 54/54/54 55/55/55 
f 55/55/55 54/54/54 56/56/56 
f 57/57/57 58/58/58 59/59/59 
f 58/58/58 57/57/57 60/60/60 
f 61/61/61 62/62/62 63/63/63 
f 62/62/62 61/61/61 64/64/64 
f 65/65/65 66/66/66 67/67/67 
f 65/65/65 67/67/67 68/68/68 
f 69/69/69 70/70/70 71/71/71 
f 70/70/70 69/69/69 72/72/72 

g Invisipart4

v 218.664 5.65438 -131.604 
v 221.604 0.00999928 -131.604 
v 221.604 5.65438 -131.604 
v 218.664 0.00999928 -131.604 
v 218.664 5.65438 -131.604 
v 221.604 5.65438 -131.604 
v 218.664 8.38048 -134.544 
v 221.604 8.38048 -134.544 
v 218.664 5.65438 -131.604 
v 218.664 0.00999928 -134.544 
v 218.664 0.00999928 -131.604 
v 218.664 8.38048 -134.544 
v 221.604 8.38048 -134.544 
v 218.664 0.00999928 -134.544 
v 218.664 8.38048 -134.544 
v 221.604 0.00999928 -134.544 
v 221.604 0.00999928 -134.544 
v 221.604 0.00999928 -131.604 
v 218.664 0.00999928 -131.604 
v 218.664 0.00999928 -134.544 
v 221.604 5.65438 -131.604 
v 221.604 0.00999928 -134.544 
v 221.604 8.38048 -134.544 
v 221.604 0.00999928 -131.604 

vn 0 0 1 
vn 0 0 1 
vn 0 0 1 
vn 0 0 1 
vn 0 0.732283 0.677165 
vn 0 0.732283 0.677165 
vn 0 0.732283 0.677165 
vn 0 0.732283 0.677165 
vn -1 0 0 
vn -1 0 0 
vn -1 0 0 
vn -1 0 0 
vn 0 0 -1 
vn 0 0 -1 
vn 0 0 -1 
vn 0 0 -1 
vn 0 -1 0 
vn 0 -1 0 
vn 0 -1 0 
vn 0 -1 0 
vn 1 0 0 
vn 1 0 0 
vn 1 0 0 
vn 1 0 0 

vt 1.4263 -2.80321 
vt 2.16122 -4.21431 
vt 2.16122 -2.80321 
vt 1.4263 -4.21431 
vt 1.4263 -2.80054 
vt 1.4263 -3.53546 
vt 2.16122 -2.80054 
vt 2.16122 -3.53546 
vt 2.16122 -2.80321 
vt 1.4263 -4.21431 
vt 2.16122 -4.21431 
vt 1.4263 -2.12169 
vt 1.4263 -2.12169 
vt 2.16122 -4.21431 
vt 2.16122 -2.12169 
vt 1.4263 -4.21431 
vt 1.4263 -3.53546 
vt 2.16122 -3.53546 
vt 2.16122 -2.80054 
vt 1.4263 -2.80054 
vt 1.4263 -2.80321 
vt 2.16122 -4.21431 
vt 2.16122 -2.12169 
vt 1.4263 -4.21431 

usemtl Invisipart1Mtl

f 73/73/73 74/74/74 75/75/75 
f 74/74/74 73/73/73 76/76/76 
f 77/77/77 78/78/78 79/79/79 
f 79/79/79 78/78/78 80/80/80 
f 81/81/81 82/82/82 83/83/83 
f 82/82/82 81/81/81 84/84/84 
f 85/85/85 86/86/86 87/87/87 
f 86/86/86 85/85/85 88/88/88 
f 89/89/89 90/90/90 91/91/91 
f 89/89/89 91/91/91 92/92/92 
f 93/93/93 94/94/94 95/95/95 
f 94/94/94 93/93/93 96/96/96 

g Invisipart5

v 218.676 5.71483 -131.633 
v 221.595 0.11 -131.633 
v 221.595 5.71483 -131.633 
v 218.676 0.11 -131.633 
v 218.676 5.71483 -131.633 
v 221.595 5.71483 -131.633 
v 218.676 8.42183 -134.552 
v 221.595 8.42183 -134.552 
v 218.676 5.71483 -131.633 
v 218.676 0.11 -134.552 
v 218.676 0.11 -131.633 
v 218.676 8.42183 -134.552 
v 221.595 8.42183 -134.552 
v 218.676 0.11 -134.552 
v 218.676 8.42183 -134.552 
v 221.595 0.11 -134.552 
v 221.595 0.11 -134.552 
v 221.595 0.11 -131.633 
v 218.676 0.11 -131.633 
v 218.676 0.11 -134.552 
v 221.595 5.71483 -131.633 
v 221.595 0.11 -134.552 
v 221.595 8.42183 -134.552 
v 221.595 0.11 -131.633 

vn 0 0 1 
vn 0 0 1 
vn 0 0 1 
vn 0 0 1 
vn 0 0.732283 0.677165 
vn 0 0.732283 0.677165 
vn 0 0.732283 0.677165 
vn 0 0.732283 0.677165 
vn -1 0 0 
vn -1 0 0 
vn -1 0 0 
vn -1 0 0 
vn 0 0 -1 
vn 0 0 -1 
vn 0 0 -1 
vn 0 0 -1 
vn 0 -1 0 
vn 0 -1 0 
vn 0 -1 0 
vn 0 -1 0 
vn 1 0 0 
vn 1 0 0 
vn 1 0 0 
vn 1 0 0 

vt 5.18732 -1.725 
vt 8.10641 -7.32982 
vt 8.10641 -1.725 
vt 5.18732 -7.32982 
vt 5.18732 -1.71437 
vt 5.18732 -4.63345 
vt 8.10641 -1.71437 
vt 8.10641 -4.63345 
vt 8.10641 -1.725 
vt 5.18732 -7.32982 
vt 8.10641 -7.32982 
vt 5.18732 0.982002 
vt 5.18732 0.982004 
vt 8.1064 -7.32982 
vt 8.10641 0.982002 
vt 5.18732 -7.32982 
vt 5.18732 -4.63345 
vt 8.10641 -4.63345 
vt 8.10641 -1.71437 
vt 5.18732 -1.71437 
vt 5.18732 -1.725 
vt 8.10641 -7.32982 
vt 8.10641 0.982004 
vt 5.18732 -7.32982 

usemtl Invisipart5Mtl

f 97/97/97 98/98/98 99/99/99 
f 98/98/98 97/97/97 100/100/100 
f 101/101/101 102/102/102 103/103/103 
f 103/103/103 102/102/102 104/104/104 
f 105/105/105 106/106/106 107/107/107 
f 106/106/106 105/105/105 108/108/108 
f 109/109/109 110/110/110 111/111/111 
f 110/110/110 109/109/109 112/112/112 
f 113/113/113 114/114/114 115/115/115 
f 113/113/113 115/115/115 116/116/116 
f 117/117/117 118/118/118 119/119/119 
f 118/118/118 117/117/117 120/120/120 

g Invisipart6

v 223.537 4.30984 -134.708 
v 223.537 0.109997 -137.369 
v 223.537 4.30984 -137.369 
v 223.537 0.109997 -134.708 
v 223.537 4.30984 -134.708 
v 223.537 4.30984 -137.369 
v 221.42 6.33827 -134.708 
v 221.42 6.33827 -137.369 
v 223.537 4.30984 -134.708 
v 221.42 0.109997 -134.708 
v 223.537 0.109997 -134.708 
v 221.42 6.33827 -134.708 
v 221.42 6.33827 -137.369 
v 221.42 0.109997 -134.708 
v 221.42 6.33827 -134.708 
v 221.42 0.109997 -137.369 
v 221.42 0.109997 -137.369 
v 223.537 0.109997 -137.369 
v 223.537 0.109997 -134.708 
v 221.42 0.109997 -134.708 
v 223.537 4.30984 -137.369 
v 221.42 0.109997 -137.369 
v 221.42 6.33827 -137.369 
v 223.537 0.109997 -137.369 

vn 1 0 0 
vn 1 0 0 
vn 1 0 0 
vn 1 0 0 
vn 0.692913 0.724409 0 
vn 0.692913 0.724409 0 
vn 0.692913 0.724409 0 
vn 0.692913 0.724409 0 
vn 0 0 1 
vn 0 0 1 
vn 0 0 1 
vn 0 0 1 
vn -1 0 0 
vn -1 0 0 
vn -1 0 0 
vn -1 0 0 
vn 0 -1 0 
vn 0 -1 0 
vn 0 -1 0 
vn 0 -1 0 
vn 0 0 -1 
vn 0 0 -1 
vn 0 0 -1 
vn 0 0 -1 

vt -4.29656 5.69362 
vt -1.63615 1.49377 
vt -1.63615 5.69362 
vt -4.29656 1.49377 
vt -4.02491 5.93811 
vt -4.02491 3.2777 
vt -1.9078 5.93811 
vt -1.9078 3.2777 
vt -1.9078 5.69362 
vt -4.02491 1.49377 
vt -1.9078 1.49377 
vt -4.02491 7.72204 
vt -4.29656 7.72205 
vt -1.63616 1.49377 
vt -1.63615 7.72204 
vt -4.29656 1.49377 
vt -4.02491 3.2777 
vt -1.9078 3.2777 
vt -1.9078 5.93811 
vt -4.02491 5.93811 
vt -4.02491 5.69362 
vt -1.9078 1.49377 
vt -1.9078 7.72205 
vt -4.02491 1.49377 

usemtl Invisipart5Mtl

f 121/121/121 122/122/122 123/123/123 
f 122/122/122 121/121/121 124/124/124 
f 125/125/125 126/126/126 127/127/127 
f 127/127/127 126/126/126 128/128/128 
f 129/129/129 130/130/130 131/131/131 
f 130/130/130 129/129/129 132/132/132 
f 133/133/133 134/134/134 135/135/135 
f 134/134/134 133/133/133 136/136/136 
f 137/137/137 138/138/138 139/139/139 
f 137/137/137 139/139/139 140/140/140 
f 141/141/141 142/142/142 143/143/143 
f 142/142/142 141/141/141 144/144/144 

g Invisipart7

v 220.104 5.04523 -138.73 
v 218.677 0.11 -138.73 
v 218.677 5.04523 -138.73 
v 220.104 0.11 -138.73 
v 220.104 5.04523 -138.73 
v 218.677 5.04523 -138.73 
v 220.104 7.42883 -136.391 
v 218.677 7.42883 -136.391 
v 220.104 5.04523 -138.73 
v 220.104 0.11 -136.391 
v 220.104 0.11 -138.73 
v 220.104 7.42883 -136.391 
v 218.677 7.42883 -136.391 
v 220.104 0.11 -136.391 
v 220.104 7.42883 -136.391 
v 218.677 0.11 -136.391 
v 218.677 0.11 -136.391 
v 218.677 0.11 -138.73 
v 220.104 0.11 -138.73 
v 220.104 0.11 -136.391 
v 218.677 5.04523 -138.73 
v 218.677 0.11 -136.391 
v 218.677 7.42883 -136.391 
v 218.677 0.11 -138.73 

vn 0 0 -1 
vn 0 0 -1 
vn 0 0 -1 
vn 0 0 -1 
vn 0 0.700787 -0.716535 
vn 0 0.700787 -0.716535 
vn 0 0.700787 -0.716535 
vn 0 0.700787 -0.716535 
vn 1 0 0 
vn 1 0 0 
vn 1 0 0 
vn 1 0 0 
vn 0 0 1 
vn 0 0 1 
vn 0 0 1 
vn 0 0 1 
vn 0 -1 0 
vn 0 -1 0 
vn 0 -1 0 
vn 0 -1 0 
vn -1 0 0 
vn -1 0 0 
vn -1 0 0 
vn -1 0 0 

vt -0.419878 3.64845 
vt 1.00708 -1.28678 
vt 1.00708 3.64845 
vt -0.419877 -1.28678 
vt -0.876292 3.08612 
vt -0.876292 1.65916 
vt 1.4635 3.08612 
vt 1.4635 1.65916 
vt 1.4635 3.64845 
vt -0.876292 -1.28678 
vt 1.4635 -1.28678 
vt -0.876292 6.03205 
vt -0.419877 6.03206 
vt 1.00708 -1.28678 
vt 1.00708 6.03205 
vt -0.419878 -1.28678 
vt -0.876292 1.65916 
vt 1.4635 1.65916 
vt 1.4635 3.08612 
vt -0.876292 3.08612 
vt -0.876292 3.64845 
vt 1.4635 -1.28678 
vt 1.4635 6.03206 
vt -0.876292 -1.28678 

usemtl Invisipart5Mtl

f 145/145/145 146/146/146 147/147/147 
f 146/146/146 145/145/145 148/148/148 
f 149/149/149 150/150/150 151/151/151 
f 151/151/151 150/150/150 152/152/152 
f 153/153/153 154/154/154 155/155/155 
f 154/154/154 153/153/153 156/156/156 
f 157/157/157 158/158/158 159/159/159 
f 158/158/158 157/157/157 160/160/160 
f 161/161/161 162/162/162 163/163/163 
f 161/161/161 163/163/163 164/164/164 
f 165/165/165 166/166/166 167/167/167 
f 166/166/166 165/165/165 168/168/168 

g Invisipart8

v 216.938 4.4426 -137.167 
v 216.938 0.11 -134.706 
v 216.938 4.4426 -134.706 
v 216.938 0.11 -137.167 
v 216.938 4.4426 -137.167 
v 216.938 4.4426 -134.706 
v 218.941 6.53514 -137.167 
v 218.941 6.53514 -134.706 
v 216.938 4.4426 -137.167 
v 218.941 0.11 -137.167 
v 216.938 0.11 -137.167 
v 218.941 6.53514 -137.167 
v 218.941 6.53514 -134.706 
v 218.941 0.11 -137.167 
v 218.941 6.53514 -137.167 
v 218.941 0.11 -134.706 
v 218.941 0.11 -134.706 
v 216.938 0.11 -134.706 
v 216.938 0.11 -137.167 
v 218.941 0.11 -137.167 
v 216.938 4.4426 -134.706 
v 218.941 0.11 -134.706 
v 218.941 6.53514 -134.706 
v 216.938 0.11 -134.706 

vn -1 0 0 
vn -1 0 0 
vn -1 0 0 
vn -1 0 0 
vn -0.724409 0.692913 0 
vn -0.724409 0.692913 0 
vn -0.724409 0.692913 0 
vn -0.724409 0.692913 0 
vn 0 0 -1 
vn 0 0 -1 
vn 0 0 -1 
vn 0 0 -1 
vn 1 0 0 
vn 1 0 0 
vn 1 0 0 
vn 1 0 0 
vn 0 -1 0 
vn 0 -1 0 
vn 0 -1 0 
vn 0 -1 0 
vn 0 0 1 
vn 0 0 1 
vn 0 0 1 
vn 0 0 1 

vt -2.40919 1.71579 
vt 0.0517855 -2.61681 
vt 0.0517848 1.71579 
vt -2.40919 -2.61681 
vt -2.18041 1.82625 
vt -2.18041 -0.63473 
vt -0.177002 1.82625 
vt -0.177002 -0.63473 
vt -0.177002 1.71579 
vt -2.18041 -2.61681 
vt -0.177002 -2.61681 
vt -2.18041 3.80833 
vt -2.40919 3.80833 
vt 0.0517839 -2.61681 
vt 0.0517852 3.80833 
vt -2.40919 -2.61681 
vt -2.18041 -0.634731 
vt -0.177002 -0.634731 
vt -0.177002 1.82625 
vt -2.18041 1.82625 
vt -2.18041 1.71579 
vt -0.177002 -2.61681 
vt -0.177002 3.80833 
vt -2.18041 -2.61681 

usemtl Invisipart5Mtl

f 169/169/169 170/170/170 171/171/171 
f 170/170/170 169/169/169 172/172/172 
f 173/173/173 174/174/174 175/175/175 
f 175/175/175 174/174/174 176/176/176 
f 177/177/177 178/178/178 179/179/179 
f 178/178/178 177/177/177 180/180/180 
f 181/181/181 182/182/182 183/183/183 
f 182/182/182 181/181/181 184/184/184 
f 185/185/185 186/186/186 187/187/187 
f 185/185/185 187/187/187 188/188/188 
f 189/189/189 190/190/190 191/191/191 
f 190/190/190 189/189/189 192/192/192 

g Invisipart9

v 221.667 6.31746 -139.682 
v 219.993 0.11 -139.682 
v 219.993 6.31746 -139.682 
v 221.667 0.11 -139.682 
v 221.667 6.31746 -139.682 
v 219.993 6.31746 -139.682 
v 221.667 9.31552 -136.432 
v 219.993 9.31552 -136.432 
v 221.667 6.31746 -139.682 
v 221.667 0.11 -136.432 
v 221.667 0.11 -139.682 
v 221.667 9.31552 -136.432 
v 219.993 9.31552 -136.432 
v 221.667 0.11 -136.432 
v 221.667 9.31552 -136.432 
v 219.993 0.11 -136.432 
v 219.993 0.11 -136.432 
v 219.993 0.11 -139.682 
v 221.667 0.11 -139.682 
v 221.667 0.11 -136.432 
v 219.993 6.31746 -139.682 
v 219.993 0.11 -136.432 
v 219.993 9.31552 -136.432 
v 219.993 0.11 -139.682 

vn 0 0 -1 
vn 0 0 -1 
vn 0 0 -1 
vn 0 0 -1 
vn 0 0.732283 -0.677165 
vn 0 0.732283 -0.677165 
vn 0 0.732283 -0.677165 
vn 0 0.732283 -0.677165 
vn 1 0 0 
vn 1 0 0 
vn 1 0 0 
vn 1 0 0 
vn 0 0 1 
vn 0 0 1 
vn 0 0 1 
vn 0 0 1 
vn 0 -1 0 
vn 0 -1 0 
vn 0 -1 0 
vn 0 -1 0 
vn -1 0 0 
vn -1 0 0 
vn -1 0 0 
vn -1 0 0 

vt -2.60254 -0.321552 
vt -0.928483 -6.52901 
vt -0.928483 -0.321552 
vt -2.60254 -6.52901 
vt -3.39025 -1.08923 
vt -3.39025 -2.76328 
vt -0.14077 -1.08923 
vt -0.14077 -2.76328 
vt -0.14077 -0.321552 
vt -3.39025 -6.52901 
vt -0.14077 -6.52901 
vt -3.39025 2.6765 
vt -2.60254 2.67651 
vt -0.928484 -6.52901 
vt -0.928483 2.6765 
vt -2.60254 -6.52901 
vt -3.39025 -2.76328 
vt -0.14077 -2.76328 
vt -0.14077 -1.08923 
vt -3.39025 -1.08923 
vt -3.39025 -0.321552 
vt -0.14077 -6.52901 
vt -0.14077 2.67651 
vt -3.39025 -6.52901 

usemtl Invisipart5Mtl

f 193/193/193 194/194/194 195/195/195 
f 194/194/194 193/193/193 196/196/196 
f 197/197/197 198/198/198 199/199/199 
f 199/199/199 198/198/198 200/200/200 
f 201/201/201 202/202/202 203/203/203 
f 202/202/202 201/201/201 204/204/204 
f 205/205/205 206/206/206 207/207/207 
f 206/206/206 205/205/205 208/208/208 
f 209/209/209 210/210/210 211/211/211 
f 209/209/209 211/211/211 212/212/212 
f 213/213/213 214/214/214 215/215/215 
f 214/214/214 213/213/213 216/216/216 

g Invisipart10

v 221.677 6.26127 -139.71 
v 219.991 0.0100002 -139.71 
v 219.991 6.26127 -139.71 
v 221.677 0.0100002 -139.71 
v 221.677 6.26127 -139.71 
v 219.991 6.26127 -139.71 
v 221.677 9.28048 -136.438 
v 219.991 9.28048 -136.438 
v 221.677 6.26127 -139.71 
v 221.677 0.0100002 -136.438 
v 221.677 0.0100002 -139.71 
v 221.677 9.28048 -136.438 
v 219.991 9.28048 -136.438 
v 221.677 0.0100002 -136.438 
v 221.677 9.28048 -136.438 
v 219.991 0.0100002 -136.438 
v 219.991 0.0100002 -136.438 
v 219.991 0.0100002 -139.71 
v 221.677 0.0100002 -139.71 
v 221.677 0.0100002 -136.438 
v 219.991 6.26127 -139.71 
v 219.991 0.0100002 -136.438 
v 219.991 9.28048 -136.438 
v 219.991 0.0100002 -139.71 

vn 0 0 -1 
vn 0 0 -1 
vn 0 0 -1 
vn 0 0 -1 
vn 0 0.732283 -0.677165 
vn 0 0.732283 -0.677165 
vn 0 0.732283 -0.677165 
vn 0 0.732283 -0.677165 
vn 1 0 0 
vn 1 0 0 
vn 1 0 0 
vn 1 0 0 
vn 0 0 1 
vn 0 0 1 
vn 0 0 1 
vn 0 0 1 
vn 0 -1 0 
vn 0 -1 0 
vn 0 -1 0 
vn 0 -1 0 
vn -1 0 0 
vn -1 0 0 
vn -1 0 0 
vn -1 0 0 

vt 0.515246 2.48642 
vt 0.936713 0.9236 
vt 0.936713 2.48642 
vt 0.515246 0.9236 
vt 0.316928 2.29314 
vt 0.316928 1.87168 
vt 1.13503 2.29314 
vt 1.13503 1.87168 
vt 1.13503 2.48642 
vt 0.316928 0.9236 
vt 1.13503 0.9236 
vt 0.316928 3.24122 
vt 0.515246 3.24122 
vt 0.936713 0.9236 
vt 0.936713 3.24122 
vt 0.515246 0.9236 
vt 0.316928 1.87168 
vt 1.13503 1.87168 
vt 1.13503 2.29314 
vt 0.316928 2.29314 
vt 0.316928 2.48642 
vt 1.13503 0.9236 
vt 1.13503 3.24122 
vt 0.316928 0.9236 

usemtl Invisipart1Mtl

f 217/217/217 218/218/218 219/219/219 
f 218/218/218 217/217/217 220/220/220 
f 221/221/221 222/222/222 223/223/223 
f 223/223/223 222/222/222 224/224/224 
f 225/225/225 226/226/226 227/227/227 
f 226/226/226 225/225/225 228/228/228 
f 229/229/229 230/230/230 231/231/231 
f 230/230/230 229/229/229 232/232/232 
f 233/233/233 234/234/234 235/235/235 
f 233/233/233 235/235/235 236/236/236 
f 237/237/237 238/238/238 239/239/239 
f 238/238/238 237/237/237 240/240/240 

g Invisipart11

v 222.096 9.63286 -137.936 
v 218.173 0.00999832 -137.936 
v 218.173 9.63286 -137.936 
v 222.096 0.00999832 -137.936 
v 222.096 9.63286 -137.936 
v 218.173 9.63286 -137.936 
v 222.096 14.2805 -134.013 
v 218.173 14.2805 -134.013 
v 222.096 9.63286 -137.936 
v 222.096 0.00999832 -134.013 
v 222.096 0.00999832 -137.936 
v 222.096 14.2805 -134.013 
v 218.173 14.2805 -134.013 
v 222.096 0.00999832 -134.013 
v 222.096 14.2805 -134.013 
v 218.173 0.00999832 -134.013 
v 218.173 0.00999832 -134.013 
v 218.173 0.00999832 -137.936 
v 222.096 0.00999832 -137.936 
v 222.096 0.00999832 -134.013 
v 218.173 9.63286 -137.936 
v 218.173 0.00999832 -134.013 
v 218.173 14.2805 -134.013 
v 218.173 0.00999832 -137.936 

vn 0 0 -1 
vn 0 0 -1 
vn 0 0 -1 
vn 0 0 -1 
vn 0 0.645669 -0.76378 
vn 0 0.645669 -0.76378 
vn 0 0.645669 -0.76378 
vn 0 0.645669 -0.76378 
vn 1 0 0 
vn 1 0 0 
vn 1 0 0 
vn 1 0 0 
vn 0 0 1 
vn 0 0 1 
vn 0 0 1 
vn 0 0 1 
vn 0 -1 0 
vn 0 -1 0 
vn 0 -1 0 
vn 0 -1 0 
vn -1 0 0 
vn -1 0 0 
vn -1 0 0 
vn -1 0 0 

vt -4.3742 11.1436 
vt -3.39344 8.7379 
vt -3.39344 11.1436 
vt -4.3742 8.7379 
vt -4.3742 11.0121 
vt -4.3742 10.0313 
vt -3.39344 11.0121 
vt -3.39344 10.0313 
vt -3.39344 11.1436 
vt -4.3742 8.7379 
vt -3.39344 8.7379 
vt -4.3742 12.3055 
vt -4.3742 12.3055 
vt -3.39344 8.7379 
vt -3.39344 12.3055 
vt -4.3742 8.7379 
vt -4.3742 10.0313 
vt -3.39344 10.0313 
vt -3.39344 11.0121 
vt -4.3742 11.0121 
vt -4.3742 11.1436 
vt -3.39344 8.7379 
vt -3.39344 12.3055 
vt -4.3742 8.7379 

usemtl Invisipart1Mtl

f 241/241/241 242/242/242 243/243/243 
f 242/242/242 241/241/241 244/244/244 
f 245/245/245 246/246/246 247/247/247 
f 247/247/247 246/246/246 248/248/248 
f 249/249/249 250/250/250 251/251/251 
f 250/250/250 249/249/249 252/252/252 
f 253/253/253 254/254/254 255/255/255 
f 254/254/254 253/253/253 256/256/256 
f 257/257/257 258/258/258 259/259/259 
f 257/257/257 259/259/259 260/260/260 
f 261/261/261 262/262/262 263/263/263 
f 262/262/262 261/261/261 264/264/264 

g Invisipart12

v 222.083 9.66543 -137.92 
v 218.187 0.109998 -137.92 
v 218.187 9.66543 -137.92 
v 222.083 0.109998 -137.92 
v 222.083 9.66543 -137.92 
v 218.187 9.66543 -137.92 
v 222.083 14.2805 -134.024 
v 218.187 14.2805 -134.024 
v 222.083 9.66543 -137.92 
v 222.083 0.109998 -134.024 
v 222.083 0.109998 -137.92 
v 222.083 14.2805 -134.024 
v 218.187 14.2805 -134.024 
v 222.083 0.109998 -134.024 
v 222.083 14.2805 -134.024 
v 218.187 0.109998 -134.024 
v 218.187 0.109998 -134.024 
v 218.187 0.109998 -137.92 
v 222.083 0.109998 -137.92 
v 222.083 0.109998 -134.024 
v 218.187 9.66543 -137.92 
v 218.187 0.109998 -134.024 
v 218.187 14.2805 -134.024 
v 218.187 0.109998 -137.92 

vn 0 0 -1 
vn 0 0 -1 
vn 0 0 -1 
vn 0 0 -1 
vn 0 0.645669 -0.76378 
vn 0 0.645669 -0.76378 
vn 0 0.645669 -0.76378 
vn 0 0.645669 -0.76378 
vn 1 0 0 
vn 1 0 0 
vn 1 0 0 
vn 1 0 0 
vn 0 0 1 
vn 0 0 1 
vn 0 0 1 
vn 0 0 1 
vn 0 -1 0 
vn 0 -1 0 
vn 0 -1 0 
vn 0 -1 0 
vn -1 0 0 
vn -1 0 0 
vn -1 0 0 
vn -1 0 0 

vt 2.01122 0.630012 
vt 5.90676 -8.92542 
vt 5.90676 0.630012 
vt 2.01122 -8.92542 
vt 2.01122 0.107592 
vt 2.01122 -3.78795 
vt 5.90676 0.107593 
vt 5.90676 -3.78795 
vt 5.90676 0.630012 
vt 2.01122 -8.92542 
vt 5.90676 -8.92542 
vt 2.01122 5.24506 
vt 2.01122 5.24506 
vt 5.90676 -8.92542 
vt 5.90676 5.24506 
vt 2.01122 -8.92542 
vt 2.01122 -3.78795 
vt 5.90676 -3.78795 
vt 5.90676 0.10759 
vt 2.01122 0.10759 
vt 2.01122 0.630012 
vt 5.90676 -8.92542 
vt 5.90676 5.24506 
vt 2.01122 -8.92542 

usemtl Invisipart5Mtl

f 265/265/265 266/266/266 267/267/267 
f 266/266/266 265/265/265 268/268/268 
f 269/269/269 270/270/270 271/271/271 
f 271/271/271 270/270/270 272/272/272 
f 273/273/273 274/274/274 275/275/275 
f 274/274/274 273/273/273 276/276/276 
f 277/277/277 278/278/278 279/279/279 
f 278/278/278 277/277/277 280/280/280 
f 281/281/281 282/282/282 283/283/283 
f 281/281/281 283/283/283 284/284/284 
f 285/285/285 286/286/286 287/287/287 
f 286/286/286 285/285/285 288/288/288 

