# This file is brought to you by Roblox Corporation
# Generated by Roblox Studio

mtllib MediumCrystal.mtl

g Invisipart1

v 217.584 5.11266 -147.043 
v 217.584 0.11 -145.655 
v 217.584 5.11266 -145.655 
v 217.584 0.11 -147.043 
v 217.584 5.11266 -147.043 
v 217.584 5.11266 -145.655 
v 219.86 7.52883 -147.043 
v 219.86 7.52883 -145.655 
v 217.584 5.11266 -147.043 
v 219.86 0.11 -147.043 
v 217.584 0.11 -147.043 
v 219.86 7.52883 -147.043 
v 219.86 7.52883 -145.655 
v 219.86 0.11 -147.043 
v 219.86 7.52883 -147.043 
v 219.86 0.11 -145.655 
v 219.86 0.11 -145.655 
v 217.584 0.11 -145.655 
v 217.584 0.11 -147.043 
v 219.86 0.11 -147.043 
v 217.584 5.11266 -145.655 
v 219.86 0.11 -145.655 
v 219.86 7.52883 -145.655 
v 217.584 0.11 -145.655 

vn -1 0 0 
vn -1 0 0 
vn -1 0 0 
vn -1 0 0 
vn -0.724409 0.685039 0 
vn -0.724409 0.685039 0 
vn -0.724409 0.685039 0 
vn -0.724409 0.685039 0 
vn 0 0 -1 
vn 0 0 -1 
vn 0 0 -1 
vn 0 0 -1 
vn 1 0 0 
vn 1 0 0 
vn 1 0 0 
vn 1 0 0 
vn 0 -1 0 
vn 0 -1 0 
vn 0 -1 0 
vn 0 -1 0 
vn 0 0 1 
vn 0 0 1 
vn 0 0 1 
vn 0 0 1 

vt 3.91565 -1.00463 
vt 5.30361 -6.00729 
vt 5.30361 -1.00463 
vt 3.91565 -6.00729 
vt 3.4717 -1.60389 
vt 3.4717 -2.99186 
vt 5.74755 -1.60389 
vt 5.74755 -2.99186 
vt 5.74755 -1.00463 
vt 3.4717 -6.00729 
vt 5.74755 -6.00729 
vt 3.4717 1.41154 
vt 3.91565 1.41154 
vt 5.30361 -6.00729 
vt 5.30361 1.41154 
vt 3.91565 -6.00729 
vt 3.4717 -2.99186 
vt 5.74755 -2.99186 
vt 5.74755 -1.60389 
vt 3.4717 -1.60389 
vt 3.4717 -1.00463 
vt 5.74755 -6.00729 
vt 5.74755 1.41154 
vt 3.4717 -6.00729 

usemtl Invisipart1Mtl

f 1/1/1 2/2/2 3/3/3 
f 2/2/2 1/1/1 4/4/4 
f 5/5/5 6/6/6 7/7/7 
f 7/7/7 6/6/6 8/8/8 
f 9/9/9 10/10/10 11/11/11 
f 10/10/10 9/9/9 12/12/12 
f 13/13/13 14/14/14 15/15/15 
f 14/14/14 13/13/13 16/16/16 
f 17/17/17 18/18/18 19/19/19 
f 17/17/17 19/19/19 20/20/20 
f 21/21/21 22/22/22 23/23/23 
f 22/22/22 21/21/21 24/24/24 

g Invisipart2

v 222.79 3.09197 -145.712 
v 222.79 0.00999856 -146.969 
v 222.79 3.09197 -146.969 
v 222.79 0.00999856 -145.712 
v 222.79 3.09197 -145.712 
v 222.79 3.09197 -146.969 
v 221.533 4.58048 -145.712 
v 221.533 4.58048 -146.969 
v 222.79 3.09197 -145.712 
v 221.533 0.00999856 -145.712 
v 222.79 0.00999856 -145.712 
v 221.533 4.58048 -145.712 
v 221.533 4.58048 -146.969 
v 221.533 0.00999856 -145.712 
v 221.533 4.58048 -145.712 
v 221.533 0.00999856 -146.969 
v 221.533 0.00999856 -146.969 
v 222.79 0.00999856 -146.969 
v 222.79 0.00999856 -145.712 
v 221.533 0.00999856 -145.712 
v 222.79 3.09197 -146.969 
v 221.533 0.00999856 -146.969 
v 221.533 4.58048 -146.969 
v 222.79 0.00999856 -146.969 

vn 1 0 0 
vn 1 0 0 
vn 1 0 0 
vn 1 0 0 
vn 0.76378 0.645669 0 
vn 0.76378 0.645669 0 
vn 0.76378 0.645669 0 
vn 0.76378 0.645669 0 
vn 0 0 1 
vn 0 0 1 
vn 0 0 1 
vn 0 0 1 
vn -1 0 0 
vn -1 0 0 
vn -1 0 0 
vn -1 0 0 
vn 0 -1 0 
vn 0 -1 0 
vn 0 -1 0 
vn 0 -1 0 
vn 0 0 -1 
vn 0 0 -1 
vn 0 0 -1 
vn 0 0 -1 

vt -3.68542 -0.0777342 
vt -3.37131 -0.848226 
vt -3.37131 -0.0777342 
vt -3.68542 -0.848226 
vt -3.68542 -0.119859 
vt -3.68542 -0.433972 
vt -3.37131 -0.119859 
vt -3.37131 -0.433972 
vt -3.37131 -0.0777342 
vt -3.68542 -0.848226 
vt -3.37131 -0.848226 
vt -3.68542 0.294395 
vt -3.68542 0.294395 
vt -3.37131 -0.848226 
vt -3.37131 0.294395 
vt -3.68542 -0.848226 
vt -3.68542 -0.433972 
vt -3.37131 -0.433972 
vt -3.37131 -0.119859 
vt -3.68542 -0.119859 
vt -3.68542 -0.0777342 
vt -3.37131 -0.848226 
vt -3.37131 0.294395 
vt -3.68542 -0.848226 

usemtl Invisipart2Mtl

f 25/25/25 26/26/26 27/27/27 
f 26/26/26 25/25/25 28/28/28 
f 29/29/29 30/30/30 31/31/31 
f 31/31/31 30/30/30 32/32/32 
f 33/33/33 34/34/34 35/35/35 
f 34/34/34 33/33/33 36/36/36 
f 37/37/37 38/38/38 39/39/39 
f 38/38/38 37/37/37 40/40/40 
f 41/41/41 42/42/42 43/43/43 
f 41/41/41 43/43/43 44/44/44 
f 45/45/45 46/46/46 47/47/47 
f 46/46/46 45/45/45 48/48/48 

g Invisipart3

v 221.751 6.89137 -147.727 
v 218.974 0.0812674 -147.727 
v 218.974 6.89137 -147.727 
v 221.751 0.0812674 -147.727 
v 221.751 6.89137 -147.727 
v 218.974 6.89137 -147.727 
v 221.751 10.1805 -144.951 
v 218.974 10.1805 -144.951 
v 221.751 6.89137 -147.727 
v 221.751 0.0812674 -144.951 
v 221.751 0.0812674 -147.727 
v 221.751 10.1805 -144.951 
v 218.974 10.1805 -144.951 
v 221.751 0.0812674 -144.951 
v 221.751 10.1805 -144.951 
v 218.974 0.0812674 -144.951 
v 218.974 0.0812674 -144.951 
v 218.974 0.0812674 -147.727 
v 221.751 0.0812674 -147.727 
v 221.751 0.0812674 -144.951 
v 218.974 6.89137 -147.727 
v 218.974 0.0812674 -144.951 
v 218.974 10.1805 -144.951 
v 218.974 0.0812674 -147.727 

vn 0 0 -1 
vn 0 0 -1 
vn 0 0 -1 
vn 0 0 -1 
vn 0 0.645669 -0.76378 
vn 0 0.645669 -0.76378 
vn 0 0.645669 -0.76378 
vn 0 0.645669 -0.76378 
vn 1 0 0 
vn 1 0 0 
vn 1 0 0 
vn 1 0 0 
vn 0 0 1 
vn 0 0 1 
vn 0 0 1 
vn 0 0 1 
vn 0 -1 0 
vn 0 -1 0 
vn 0 -1 0 
vn 0 -1 0 
vn -1 0 0 
vn -1 0 0 
vn -1 0 0 
vn -1 0 0 

vt -5.60677 5.15055 
vt -2.83044 -1.65955 
vt -2.83044 5.15055 
vt -5.60677 -1.65955 
vt -5.60677 4.77822 
vt -5.60677 2.00189 
vt -2.83044 4.77822 
vt -2.83044 2.00189 
vt -2.83044 5.15055 
vt -5.60677 -1.65955 
vt -2.83044 -1.65955 
vt -5.60677 8.43966 
vt -5.60677 8.43966 
vt -2.83044 -1.65955 
vt -2.83044 8.43966 
vt -5.60677 -1.65955 
vt -5.60677 2.00189 
vt -2.83044 2.00189 
vt -2.83044 4.77822 
vt -5.60677 4.77822 
vt -5.60677 5.15055 
vt -2.83044 -1.65955 
vt -2.83044 8.43966 
vt -5.60677 -1.65955 

usemtl Invisipart1Mtl

f 49/49/49 50/50/50 51/51/51 
f 50/50/50 49/49/49 52/52/52 
f 53/53/53 54/54/54 55/55/55 
f 55/55/55 54/54/54 56/56/56 
f 57/57/57 58/58/58 59/59/59 
f 58/58/58 57/57/57 60/60/60 
f 61/61/61 62/62/62 63/63/63 
f 62/62/62 61/61/61 64/64/64 
f 65/65/65 66/66/66 67/67/67 
f 65/65/65 67/67/67 68/68/68 
f 69/69/69 70/70/70 71/71/71 
f 70/70/70 69/69/69 72/72/72 

g Invisipart4

v 222.785 3.1024 -145.716 
v 222.785 0.0420258 -146.964 
v 222.785 3.1024 -146.964 
v 222.785 0.0420258 -145.716 
v 222.785 3.1024 -145.716 
v 222.785 3.1024 -146.964 
v 221.537 4.58048 -145.716 
v 221.537 4.58048 -146.964 
v 222.785 3.1024 -145.716 
v 221.537 0.0420258 -145.716 
v 222.785 0.0420258 -145.716 
v 221.537 4.58048 -145.716 
v 221.537 4.58048 -146.964 
v 221.537 0.0420258 -145.716 
v 221.537 4.58048 -145.716 
v 221.537 0.0420258 -146.964 
v 221.537 0.0420258 -146.964 
v 222.785 0.0420258 -146.964 
v 222.785 0.0420258 -145.716 
v 221.537 0.0420258 -145.716 
v 222.785 3.1024 -146.964 
v 221.537 0.0420258 -146.964 
v 221.537 4.58048 -146.964 
v 222.785 0.0420258 -146.964 

vn 1 0 0 
vn 1 0 0 
vn 1 0 0 
vn 1 0 0 
vn 0.76378 0.645669 0 
vn 0.76378 0.645669 0 
vn 0.76378 0.645669 0 
vn 0.76378 0.645669 0 
vn 0 0 1 
vn 0 0 1 
vn 0 0 1 
vn 0 0 1 
vn -1 0 0 
vn -1 0 0 
vn -1 0 0 
vn -1 0 0 
vn 0 -1 0 
vn 0 -1 0 
vn 0 -1 0 
vn 0 -1 0 
vn 0 0 -1 
vn 0 0 -1 
vn 0 0 -1 
vn 0 0 -1 

vt 2.87251 -1.51291 
vt 4.12016 -4.57328 
vt 4.12016 -1.51291 
vt 2.87251 -4.57328 
vt 2.87251 -1.68023 
vt 2.87251 -2.92788 
vt 4.12016 -1.68023 
vt 4.12016 -2.92788 
vt 4.12016 -1.51291 
vt 2.87251 -4.57328 
vt 4.12016 -4.57328 
vt 2.87251 -0.0348277 
vt 2.87251 -0.0348268 
vt 4.12016 -4.57328 
vt 4.12016 -0.0348277 
vt 2.87251 -4.57328 
vt 2.87251 -2.92788 
vt 4.12016 -2.92788 
vt 4.12016 -1.68023 
vt 2.87251 -1.68023 
vt 2.87251 -1.51291 
vt 4.12016 -4.57328 
vt 4.12016 -0.0348268 
vt 2.87251 -4.57328 

usemtl Invisipart1Mtl

f 73/73/73 74/74/74 75/75/75 
f 74/74/74 73/73/73 76/76/76 
f 77/77/77 78/78/78 79/79/79 
f 79/79/79 78/78/78 80/80/80 
f 81/81/81 82/82/82 83/83/83 
f 82/82/82 81/81/81 84/84/84 
f 85/85/85 86/86/86 87/87/87 
f 86/86/86 85/85/85 88/88/88 
f 89/89/89 90/90/90 91/91/91 
f 89/89/89 91/91/91 92/92/92 
f 93/93/93 94/94/94 95/95/95 
f 94/94/94 93/93/93 96/96/96 

g Invisipart5

v 219.331 3.57077 -143.558 
v 221.385 0.00999999 -143.558 
v 221.385 3.57077 -143.558 
v 219.331 0.00999999 -143.558 
v 219.331 3.57077 -143.558 
v 221.385 3.57077 -143.558 
v 219.331 5.29054 -145.231 
v 221.385 5.29054 -145.231 
v 219.331 3.57077 -143.558 
v 219.331 0.00999999 -145.231 
v 219.331 0.00999999 -143.558 
v 219.331 5.29054 -145.231 
v 221.385 5.29054 -145.231 
v 219.331 0.00999999 -145.231 
v 219.331 5.29054 -145.231 
v 221.385 0.00999999 -145.231 
v 221.385 0.00999999 -145.231 
v 221.385 0.00999999 -143.558 
v 219.331 0.00999999 -143.558 
v 219.331 0.00999999 -145.231 
v 221.385 3.57077 -143.558 
v 221.385 0.00999999 -145.231 
v 221.385 5.29054 -145.231 
v 221.385 0.00999999 -143.558 

vn 0 0 1 
vn 0 0 1 
vn 0 0 1 
vn 0 0 1 
vn 0 0.700787 0.716535 
vn 0 0.700787 0.716535 
vn 0 0.700787 0.716535 
vn 0 0.700787 0.716535 
vn -1 0 0 
vn -1 0 0 
vn -1 0 0 
vn -1 0 0 
vn 0 0 -1 
vn 0 0 -1 
vn 0 0 -1 
vn 0 0 -1 
vn 0 -1 0 
vn 0 -1 0 
vn 0 -1 0 
vn 0 -1 0 
vn 1 0 0 
vn 1 0 0 
vn 1 0 0 
vn 1 0 0 

vt 0.366618 3.65792 
vt 0.880254 2.76773 
vt 0.880254 3.65792 
vt 0.366618 2.76773 
vt 0.414368 3.68462 
vt 0.414368 3.17098 
vt 0.832503 3.68462 
vt 0.832503 3.17098 
vt 0.832503 3.65792 
vt 0.414368 2.76773 
vt 0.832503 2.76773 
vt 0.414368 4.08786 
vt 0.366618 4.08786 
vt 0.880254 2.76773 
vt 0.880254 4.08786 
vt 0.366618 2.76773 
vt 0.414368 3.17098 
vt 0.832503 3.17098 
vt 0.832503 3.68462 
vt 0.414368 3.68462 
vt 0.414368 3.65792 
vt 0.832503 2.76773 
vt 0.832503 4.08786 
vt 0.414368 2.76773 

usemtl Invisipart2Mtl

f 97/97/97 98/98/98 99/99/99 
f 98/98/98 97/97/97 100/100/100 
f 101/101/101 102/102/102 103/103/103 
f 103/103/103 102/102/102 104/104/104 
f 105/105/105 106/106/106 107/107/107 
f 106/106/106 105/105/105 108/108/108 
f 109/109/109 110/110/110 111/111/111 
f 110/110/110 109/109/109 112/112/112 
f 113/113/113 114/114/114 115/115/115 
f 113/113/113 115/115/115 116/116/116 
f 117/117/117 118/118/118 119/119/119 
f 118/118/118 117/117/117 120/120/120 

g Invisipart6

v 219.34 3.62743 -143.578 
v 221.349 0.0916095 -143.578 
v 221.349 3.62743 -143.578 
v 219.34 0.0916095 -143.578 
v 219.34 3.62743 -143.578 
v 221.349 3.62743 -143.578 
v 219.34 5.33514 -145.213 
v 221.349 5.33514 -145.213 
v 219.34 3.62743 -143.578 
v 219.34 0.0916095 -145.213 
v 219.34 0.0916095 -143.578 
v 219.34 5.33514 -145.213 
v 221.349 5.33514 -145.213 
v 219.34 0.0916095 -145.213 
v 219.34 5.33514 -145.213 
v 221.349 0.0916095 -145.213 
v 221.349 0.0916095 -145.213 
v 221.349 0.0916095 -143.578 
v 219.34 0.0916095 -143.578 
v 219.34 0.0916095 -145.213 
v 221.349 3.62743 -143.578 
v 221.349 0.0916095 -145.213 
v 221.349 5.33514 -145.213 
v 221.349 0.0916095 -143.578 

vn 0 0 1 
vn 0 0 1 
vn 0 0 1 
vn 0 0 1 
vn 0 0.692913 0.724409 
vn 0 0.692913 0.724409 
vn 0 0.692913 0.724409 
vn 0 0.692913 0.724409 
vn -1 0 0 
vn -1 0 0 
vn -1 0 0 
vn -1 0 0 
vn 0 0 -1 
vn 0 0 -1 
vn 0 0 -1 
vn 0 0 -1 
vn 0 -1 0 
vn 0 -1 0 
vn 0 -1 0 
vn 0 -1 0 
vn 1 0 0 
vn 1 0 0 
vn 1 0 0 
vn 1 0 0 

vt 1.59517 0.795376 
vt 3.60356 -2.74044 
vt 3.60356 0.795376 
vt 1.59517 -2.74044 
vt 1.78188 0.885523 
vt 1.78188 -1.12287 
vt 3.41685 0.885524 
vt 3.41685 -1.12287 
vt 3.41685 0.795376 
vt 1.78188 -2.74044 
vt 3.41685 -2.74044 
vt 1.78188 2.50309 
vt 1.59517 2.50309 
vt 3.60356 -2.74044 
vt 3.60356 2.50309 
vt 1.59517 -2.74044 
vt 1.78188 -1.12287 
vt 3.41685 -1.12287 
vt 3.41685 0.885522 
vt 1.78188 0.885522 
vt 1.78188 0.795376 
vt 3.41685 -2.74044 
vt 3.41685 2.50309 
vt 1.78188 -2.74044 

usemtl Invisipart1Mtl

f 121/121/121 122/122/122 123/123/123 
f 122/122/122 121/121/121 124/124/124 
f 125/125/125 126/126/126 127/127/127 
f 127/127/127 126/126/126 128/128/128 
f 129/129/129 130/130/130 131/131/131 
f 130/130/130 129/129/129 132/132/132 
f 133/133/133 134/134/134 135/135/135 
f 134/134/134 133/133/133 136/136/136 
f 137/137/137 138/138/138 139/139/139 
f 137/137/137 139/139/139 140/140/140 
f 141/141/141 142/142/142 143/143/143 
f 142/142/142 141/141/141 144/144/144 

g Invisipart7

v 217.53 4.98006 -147.061 
v 217.53 0.00999999 -145.624 
v 217.53 4.98006 -145.624 
v 217.53 0.00999999 -147.061 
v 217.53 4.98006 -147.061 
v 217.53 4.98006 -145.624 
v 219.887 7.38048 -147.061 
v 219.887 7.38048 -145.624 
v 217.53 4.98006 -147.061 
v 219.887 0.00999999 -147.061 
v 217.53 0.00999999 -147.061 
v 219.887 7.38048 -147.061 
v 219.887 7.38048 -145.624 
v 219.887 0.00999999 -147.061 
v 219.887 7.38048 -147.061 
v 219.887 0.00999999 -145.624 
v 219.887 0.00999999 -145.624 
v 217.53 0.00999999 -145.624 
v 217.53 0.00999999 -147.061 
v 219.887 0.00999999 -147.061 
v 217.53 4.98006 -145.624 
v 219.887 0.00999999 -145.624 
v 219.887 7.38048 -145.624 
v 217.53 0.00999999 -145.624 

vn -1 0 0 
vn -1 0 0 
vn -1 0 0 
vn -1 0 0 
vn -0.716535 0.700787 0 
vn -0.716535 0.700787 0 
vn -0.716535 0.700787 0 
vn -0.716535 0.700787 0 
vn 0 0 -1 
vn 0 0 -1 
vn 0 0 -1 
vn 0 0 -1 
vn 1 0 0 
vn 1 0 0 
vn 1 0 0 
vn 1 0 0 
vn 0 -1 0 
vn 0 -1 0 
vn 0 -1 0 
vn 0 -1 0 
vn 0 0 1 
vn 0 0 1 
vn 0 0 1 
vn 0 0 1 

vt 3.78259 2.70353 
vt 4.14184 1.46102 
vt 4.14184 2.70353 
vt 3.78259 1.46102 
vt 3.66768 2.56195 
vt 3.66768 2.2027 
vt 4.25675 2.56195 
vt 4.25675 2.2027 
vt 4.25675 2.70353 
vt 3.66768 1.46102 
vt 4.25675 1.46102 
vt 3.66768 3.30364 
vt 3.78259 3.30364 
vt 4.14184 1.46102 
vt 4.14184 3.30364 
vt 3.78259 1.46102 
vt 3.66768 2.2027 
vt 4.25675 2.2027 
vt 4.25675 2.56195 
vt 3.66768 2.56195 
vt 3.66768 2.70353 
vt 4.25675 1.46102 
vt 4.25675 3.30364 
vt 3.66768 1.46102 

usemtl Invisipart2Mtl

f 145/145/145 146/146/146 147/147/147 
f 146/146/146 145/145/145 148/148/148 
f 149/149/149 150/150/150 151/151/151 
f 151/151/151 150/150/150 152/152/152 
f 153/153/153 154/154/154 155/155/155 
f 154/154/154 153/153/153 156/156/156 
f 157/157/157 158/158/158 159/159/159 
f 158/158/158 157/157/157 160/160/160 
f 161/161/161 162/162/162 163/163/163 
f 161/161/161 163/163/163 164/164/164 
f 165/165/165 166/166/166 167/167/167 
f 166/166/166 165/165/165 168/168/168 

g Invisipart8

v 221.76 6.86816 -147.738 
v 218.964 0.00999832 -147.738 
v 218.964 6.86816 -147.738 
v 221.76 0.00999832 -147.738 
v 221.76 6.86816 -147.738 
v 218.964 6.86816 -147.738 
v 221.76 10.1805 -144.943 
v 218.964 10.1805 -144.943 
v 221.76 6.86816 -147.738 
v 221.76 0.00999832 -144.943 
v 221.76 0.00999832 -147.738 
v 221.76 10.1805 -144.943 
v 218.964 10.1805 -144.943 
v 221.76 0.00999832 -144.943 
v 221.76 10.1805 -144.943 
v 218.964 0.00999832 -144.943 
v 218.964 0.00999832 -144.943 
v 218.964 0.00999832 -147.738 
v 221.76 0.00999832 -147.738 
v 221.76 0.00999832 -144.943 
v 218.964 6.86816 -147.738 
v 218.964 0.00999832 -144.943 
v 218.964 10.1805 -144.943 
v 218.964 0.00999832 -147.738 

vn 0 0 -1 
vn 0 0 -1 
vn 0 0 -1 
vn 0 0 -1 
vn 0 0.645669 -0.76378 
vn 0 0.645669 -0.76378 
vn 0 0.645669 -0.76378 
vn 0 0.645669 -0.76378 
vn 1 0 0 
vn 1 0 0 
vn 1 0 0 
vn 1 0 0 
vn 0 0 1 
vn 0 0 1 
vn 0 0 1 
vn 0 0 1 
vn 0 -1 0 
vn 0 -1 0 
vn 0 -1 0 
vn 0 -1 0 
vn -1 0 0 
vn -1 0 0 
vn -1 0 0 
vn -1 0 0 

vt -3.80281 -4.02837 
vt -3.10383 -5.7429 
vt -3.10383 -4.02837 
vt -3.80281 -5.7429 
vt -3.80281 -4.1221 
vt -3.80281 -4.82108 
vt -3.10383 -4.1221 
vt -3.10383 -4.82108 
vt -3.10383 -4.02837 
vt -3.80281 -5.7429 
vt -3.10383 -5.7429 
vt -3.80281 -3.20028 
vt -3.80281 -3.20028 
vt -3.10383 -5.7429 
vt -3.10383 -3.20028 
vt -3.80281 -5.7429 
vt -3.80281 -4.82108 
vt -3.10383 -4.82108 
vt -3.10383 -4.1221 
vt -3.80281 -4.1221 
vt -3.80281 -4.02837 
vt -3.10383 -5.7429 
vt -3.10383 -3.20028 
vt -3.80281 -5.7429 

usemtl Invisipart2Mtl

f 169/169/169 170/170/170 171/171/171 
f 170/170/170 169/169/169 172/172/172 
f 173/173/173 174/174/174 175/175/175 
f 175/175/175 174/174/174 176/176/176 
f 177/177/177 178/178/178 179/179/179 
f 178/178/178 177/177/177 180/180/180 
f 181/181/181 182/182/182 183/183/183 
f 182/182/182 181/181/181 184/184/184 
f 185/185/185 186/186/186 187/187/187 
f 185/185/185 187/187/187 188/188/188 
f 189/189/189 190/190/190 191/191/191 
f 190/190/190 189/189/189 192/192/192 

